<mxfile host="app.diagrams.net" agent="Mozilla/5.0 (Windows NT 10.0; Win64; x64) AppleWebKit/537.36 (KHTML, like Gecko) Chrome/112.0.0.0 Safari/537.36" version="26.1.1">
  <diagram name="Page-1" id="52a04d89-c75d-2922-d76d-85b35f80e030">
    <mxGraphModel dx="1664" dy="864" grid="1" gridSize="10" guides="1" tooltips="1" connect="1" arrows="1" fold="1" page="1" pageScale="1" pageWidth="1100" pageHeight="850" background="none" math="0" shadow="0">
      <root>
        <mxCell id="0" />
        <mxCell id="1" parent="0" />
        <mxCell id="qKuAGOzUROGgnCHo_64u-135" style="edgeStyle=orthogonalEdgeStyle;rounded=0;orthogonalLoop=1;jettySize=auto;html=1;exitX=0.75;exitY=1;exitDx=0;exitDy=0;entryX=0.75;entryY=0;entryDx=0;entryDy=0;" edge="1" parent="1" source="qKuAGOzUROGgnCHo_64u-3" target="qKuAGOzUROGgnCHo_64u-5">
          <mxGeometry relative="1" as="geometry" />
        </mxCell>
        <mxCell id="qKuAGOzUROGgnCHo_64u-137" value="支付回调" style="edgeLabel;html=1;align=center;verticalAlign=middle;resizable=0;points=[];textDirection=vertical-rl;" vertex="1" connectable="0" parent="qKuAGOzUROGgnCHo_64u-135">
          <mxGeometry x="0.002" relative="1" as="geometry">
            <mxPoint x="8" as="offset" />
          </mxGeometry>
        </mxCell>
        <mxCell id="qKuAGOzUROGgnCHo_64u-3" value="&lt;font style=&quot;font-size: 14px;&quot;&gt;微信支付系统&lt;/font&gt;" style="rounded=0;whiteSpace=wrap;html=1;fontStyle=1" vertex="1" parent="1">
          <mxGeometry x="760" y="205" width="120" height="60" as="geometry" />
        </mxCell>
        <mxCell id="qKuAGOzUROGgnCHo_64u-44" style="edgeStyle=orthogonalEdgeStyle;rounded=0;orthogonalLoop=1;jettySize=auto;html=1;exitX=1;exitY=0.25;exitDx=0;exitDy=0;entryX=0;entryY=0.25;entryDx=0;entryDy=0;" edge="1" parent="1" source="qKuAGOzUROGgnCHo_64u-4" target="qKuAGOzUROGgnCHo_64u-5">
          <mxGeometry relative="1" as="geometry" />
        </mxCell>
        <mxCell id="qKuAGOzUROGgnCHo_64u-45" value="商品选择/订单提交" style="edgeLabel;html=1;align=center;verticalAlign=middle;resizable=0;points=[];" vertex="1" connectable="0" parent="qKuAGOzUROGgnCHo_64u-44">
          <mxGeometry x="-0.4535" y="-2" relative="1" as="geometry">
            <mxPoint x="67" y="-14" as="offset" />
          </mxGeometry>
        </mxCell>
        <mxCell id="qKuAGOzUROGgnCHo_64u-51" style="edgeStyle=orthogonalEdgeStyle;rounded=0;orthogonalLoop=1;jettySize=auto;html=1;exitX=0.25;exitY=0;exitDx=0;exitDy=0;entryX=0.25;entryY=1;entryDx=0;entryDy=0;" edge="1" parent="1" source="qKuAGOzUROGgnCHo_64u-4" target="qKuAGOzUROGgnCHo_64u-9">
          <mxGeometry relative="1" as="geometry" />
        </mxCell>
        <mxCell id="qKuAGOzUROGgnCHo_64u-52" value="视力测试数据" style="edgeLabel;html=1;align=center;verticalAlign=middle;resizable=0;points=[];textDirection=vertical-rl;" vertex="1" connectable="0" parent="qKuAGOzUROGgnCHo_64u-51">
          <mxGeometry x="0.5271" y="5" relative="1" as="geometry">
            <mxPoint x="14" y="30" as="offset" />
          </mxGeometry>
        </mxCell>
        <mxCell id="qKuAGOzUROGgnCHo_64u-55" style="edgeStyle=orthogonalEdgeStyle;rounded=0;orthogonalLoop=1;jettySize=auto;html=1;exitX=0;exitY=0.25;exitDx=0;exitDy=0;entryX=1;entryY=0.25;entryDx=0;entryDy=0;" edge="1" parent="1" source="qKuAGOzUROGgnCHo_64u-4" target="qKuAGOzUROGgnCHo_64u-8">
          <mxGeometry relative="1" as="geometry" />
        </mxCell>
        <mxCell id="qKuAGOzUROGgnCHo_64u-56" value="浏览请求" style="edgeLabel;html=1;align=center;verticalAlign=middle;resizable=0;points=[];" vertex="1" connectable="0" parent="qKuAGOzUROGgnCHo_64u-55">
          <mxGeometry x="0.4689" y="2" relative="1" as="geometry">
            <mxPoint x="32" y="-17" as="offset" />
          </mxGeometry>
        </mxCell>
        <mxCell id="qKuAGOzUROGgnCHo_64u-97" style="edgeStyle=orthogonalEdgeStyle;rounded=0;orthogonalLoop=1;jettySize=auto;html=1;exitX=0.25;exitY=1;exitDx=0;exitDy=0;entryX=0.75;entryY=0;entryDx=0;entryDy=0;" edge="1" parent="1" source="qKuAGOzUROGgnCHo_64u-4" target="qKuAGOzUROGgnCHo_64u-96">
          <mxGeometry relative="1" as="geometry">
            <Array as="points">
              <mxPoint x="330" y="465" />
              <mxPoint x="330" y="465" />
            </Array>
          </mxGeometry>
        </mxCell>
        <mxCell id="qKuAGOzUROGgnCHo_64u-113" value="更新成功提示" style="edgeLabel;html=1;align=center;verticalAlign=middle;resizable=0;points=[];textDirection=vertical-rl;" vertex="1" connectable="0" parent="qKuAGOzUROGgnCHo_64u-97">
          <mxGeometry x="-0.4375" y="-1" relative="1" as="geometry">
            <mxPoint x="10" y="26" as="offset" />
          </mxGeometry>
        </mxCell>
        <mxCell id="qKuAGOzUROGgnCHo_64u-105" style="edgeStyle=orthogonalEdgeStyle;rounded=0;orthogonalLoop=1;jettySize=auto;html=1;exitX=1;exitY=1;exitDx=0;exitDy=0;entryX=0.5;entryY=0;entryDx=0;entryDy=0;" edge="1" parent="1" source="qKuAGOzUROGgnCHo_64u-4" target="qKuAGOzUROGgnCHo_64u-98">
          <mxGeometry relative="1" as="geometry" />
        </mxCell>
        <mxCell id="qKuAGOzUROGgnCHo_64u-115" value="登录状态" style="edgeLabel;html=1;align=center;verticalAlign=middle;resizable=0;points=[];textDirection=vertical-rl;" vertex="1" connectable="0" parent="qKuAGOzUROGgnCHo_64u-105">
          <mxGeometry x="-0.5496" y="1" relative="1" as="geometry">
            <mxPoint x="7" y="31" as="offset" />
          </mxGeometry>
        </mxCell>
        <mxCell id="qKuAGOzUROGgnCHo_64u-4" value="&lt;font style=&quot;font-size: 14px;&quot;&gt;用户&lt;/font&gt;" style="rounded=0;whiteSpace=wrap;html=1;fontStyle=1" vertex="1" parent="1">
          <mxGeometry x="300" y="385" width="120" height="60" as="geometry" />
        </mxCell>
        <mxCell id="qKuAGOzUROGgnCHo_64u-47" style="edgeStyle=orthogonalEdgeStyle;rounded=0;orthogonalLoop=1;jettySize=auto;html=1;exitX=0;exitY=0.75;exitDx=0;exitDy=0;entryX=1;entryY=0.75;entryDx=0;entryDy=0;" edge="1" parent="1" source="qKuAGOzUROGgnCHo_64u-5" target="qKuAGOzUROGgnCHo_64u-4">
          <mxGeometry relative="1" as="geometry" />
        </mxCell>
        <mxCell id="qKuAGOzUROGgnCHo_64u-50" value="订单确认/支付状态" style="edgeLabel;html=1;align=center;verticalAlign=middle;resizable=0;points=[];" vertex="1" connectable="0" parent="qKuAGOzUROGgnCHo_64u-47">
          <mxGeometry x="0.539" relative="1" as="geometry">
            <mxPoint x="81" y="10" as="offset" />
          </mxGeometry>
        </mxCell>
        <mxCell id="qKuAGOzUROGgnCHo_64u-61" style="edgeStyle=orthogonalEdgeStyle;rounded=0;orthogonalLoop=1;jettySize=auto;html=1;exitX=0.5;exitY=1;exitDx=0;exitDy=0;entryX=0.5;entryY=0;entryDx=0;entryDy=0;" edge="1" parent="1" source="qKuAGOzUROGgnCHo_64u-5" target="qKuAGOzUROGgnCHo_64u-20">
          <mxGeometry relative="1" as="geometry" />
        </mxCell>
        <mxCell id="qKuAGOzUROGgnCHo_64u-62" value="库存预减操作" style="edgeLabel;html=1;align=center;verticalAlign=middle;resizable=0;points=[];textDirection=vertical-rl;" vertex="1" connectable="0" parent="qKuAGOzUROGgnCHo_64u-61">
          <mxGeometry x="-0.0566" y="1" relative="1" as="geometry">
            <mxPoint x="9" y="6" as="offset" />
          </mxGeometry>
        </mxCell>
        <mxCell id="qKuAGOzUROGgnCHo_64u-129" style="edgeStyle=orthogonalEdgeStyle;rounded=0;orthogonalLoop=1;jettySize=auto;html=1;exitX=1;exitY=0.5;exitDx=0;exitDy=0;entryX=0;entryY=0.5;entryDx=0;entryDy=0;" edge="1" parent="1" source="qKuAGOzUROGgnCHo_64u-5" target="qKuAGOzUROGgnCHo_64u-63">
          <mxGeometry relative="1" as="geometry" />
        </mxCell>
        <mxCell id="qKuAGOzUROGgnCHo_64u-131" value="信息查询" style="edgeLabel;html=1;align=center;verticalAlign=middle;resizable=0;points=[];textDirection=vertical-rl;" vertex="1" connectable="0" parent="qKuAGOzUROGgnCHo_64u-129">
          <mxGeometry x="0.0092" y="2" relative="1" as="geometry">
            <mxPoint x="9" y="6" as="offset" />
          </mxGeometry>
        </mxCell>
        <mxCell id="qKuAGOzUROGgnCHo_64u-134" style="edgeStyle=orthogonalEdgeStyle;rounded=0;orthogonalLoop=1;jettySize=auto;html=1;exitX=0.25;exitY=0;exitDx=0;exitDy=0;entryX=0.25;entryY=1;entryDx=0;entryDy=0;" edge="1" parent="1" source="qKuAGOzUROGgnCHo_64u-5" target="qKuAGOzUROGgnCHo_64u-3">
          <mxGeometry relative="1" as="geometry" />
        </mxCell>
        <mxCell id="qKuAGOzUROGgnCHo_64u-136" value="支付请求" style="edgeLabel;html=1;align=center;verticalAlign=middle;resizable=0;points=[];textDirection=vertical-rl;" vertex="1" connectable="0" parent="qKuAGOzUROGgnCHo_64u-134">
          <mxGeometry x="-0.0216" y="-1" relative="1" as="geometry">
            <mxPoint x="6" as="offset" />
          </mxGeometry>
        </mxCell>
        <mxCell id="qKuAGOzUROGgnCHo_64u-144" style="edgeStyle=orthogonalEdgeStyle;rounded=0;orthogonalLoop=1;jettySize=auto;html=1;exitX=0.75;exitY=1;exitDx=0;exitDy=0;entryX=0.5;entryY=0;entryDx=0;entryDy=0;" edge="1" parent="1" source="qKuAGOzUROGgnCHo_64u-5" target="qKuAGOzUROGgnCHo_64u-6">
          <mxGeometry relative="1" as="geometry" />
        </mxCell>
        <mxCell id="qKuAGOzUROGgnCHo_64u-145" value="写入订单数据" style="edgeLabel;html=1;align=center;verticalAlign=middle;resizable=0;points=[];" vertex="1" connectable="0" parent="qKuAGOzUROGgnCHo_64u-144">
          <mxGeometry x="0.0006" y="1" relative="1" as="geometry">
            <mxPoint y="-11" as="offset" />
          </mxGeometry>
        </mxCell>
        <mxCell id="qKuAGOzUROGgnCHo_64u-5" value="购物模块" style="rounded=1;whiteSpace=wrap;html=1;" vertex="1" parent="1">
          <mxGeometry x="760" y="385" width="120" height="60" as="geometry" />
        </mxCell>
        <mxCell id="qKuAGOzUROGgnCHo_64u-6" value="订单表" style="shape=partialRectangle;whiteSpace=wrap;html=1;left=0;right=0;fillColor=none;" vertex="1" parent="1">
          <mxGeometry x="950" y="530" width="120" height="60" as="geometry" />
        </mxCell>
        <mxCell id="qKuAGOzUROGgnCHo_64u-57" style="edgeStyle=orthogonalEdgeStyle;rounded=0;orthogonalLoop=1;jettySize=auto;html=1;exitX=1;exitY=0.75;exitDx=0;exitDy=0;entryX=0;entryY=0.75;entryDx=0;entryDy=0;" edge="1" parent="1" source="qKuAGOzUROGgnCHo_64u-8" target="qKuAGOzUROGgnCHo_64u-4">
          <mxGeometry relative="1" as="geometry" />
        </mxCell>
        <mxCell id="qKuAGOzUROGgnCHo_64u-58" value="科普文章列表" style="edgeLabel;html=1;align=center;verticalAlign=middle;resizable=0;points=[];" vertex="1" connectable="0" parent="qKuAGOzUROGgnCHo_64u-57">
          <mxGeometry x="0.4555" y="1" relative="1" as="geometry">
            <mxPoint x="-32" y="16" as="offset" />
          </mxGeometry>
        </mxCell>
        <mxCell id="qKuAGOzUROGgnCHo_64u-69" style="edgeStyle=orthogonalEdgeStyle;rounded=0;orthogonalLoop=1;jettySize=auto;html=1;exitX=0.5;exitY=0;exitDx=0;exitDy=0;entryX=0.5;entryY=1;entryDx=0;entryDy=0;" edge="1" parent="1" source="qKuAGOzUROGgnCHo_64u-8" target="qKuAGOzUROGgnCHo_64u-34">
          <mxGeometry relative="1" as="geometry" />
        </mxCell>
        <mxCell id="qKuAGOzUROGgnCHo_64u-71" value="内容检索请求" style="edgeLabel;html=1;align=center;verticalAlign=middle;resizable=0;points=[];textDirection=vertical-rl;" vertex="1" connectable="0" parent="qKuAGOzUROGgnCHo_64u-69">
          <mxGeometry x="-0.0353" relative="1" as="geometry">
            <mxPoint x="10" as="offset" />
          </mxGeometry>
        </mxCell>
        <mxCell id="qKuAGOzUROGgnCHo_64u-8" value="科普知识模块&lt;span style=&quot;color: rgba(0, 0, 0, 0); font-family: monospace; font-size: 0px; text-align: start; white-space: nowrap;&quot;&gt;%3CmxGraphModel%3E%3Croot%3E%3CmxCell%20id%3D%220%22%2F%3E%3CmxCell%20id%3D%221%22%20parent%3D%220%22%2F%3E%3CmxCell%20id%3D%222%22%20value%3D%22%E8%B4%AD%E7%89%A9%E6%A8%A1%E5%9D%97%22%20style%3D%22rounded%3D1%3BwhiteSpace%3Dwrap%3Bhtml%3D1%3B%22%20vertex%3D%221%22%20parent%3D%221%22%3E%3CmxGeometry%20x%3D%22500%22%20y%3D%22210%22%20width%3D%22120%22%20height%3D%2260%22%20as%3D%22geometry%22%2F%3E%3C%2FmxCell%3E%3C%2Froot%3E%3C%2FmxGraphModel%3E&lt;/span&gt;" style="rounded=1;whiteSpace=wrap;html=1;" vertex="1" parent="1">
          <mxGeometry x="40" y="385" width="120" height="60" as="geometry" />
        </mxCell>
        <mxCell id="qKuAGOzUROGgnCHo_64u-53" style="edgeStyle=orthogonalEdgeStyle;rounded=0;orthogonalLoop=1;jettySize=auto;html=1;exitX=0.75;exitY=1;exitDx=0;exitDy=0;entryX=0.75;entryY=0;entryDx=0;entryDy=0;" edge="1" parent="1" source="qKuAGOzUROGgnCHo_64u-9" target="qKuAGOzUROGgnCHo_64u-4">
          <mxGeometry relative="1" as="geometry" />
        </mxCell>
        <mxCell id="qKuAGOzUROGgnCHo_64u-54" value="自测报告" style="edgeLabel;html=1;align=center;verticalAlign=middle;resizable=0;points=[];textDirection=vertical-rl;" vertex="1" connectable="0" parent="qKuAGOzUROGgnCHo_64u-53">
          <mxGeometry x="-0.5506" y="-2" relative="1" as="geometry">
            <mxPoint x="9" y="29" as="offset" />
          </mxGeometry>
        </mxCell>
        <mxCell id="qKuAGOzUROGgnCHo_64u-139" style="edgeStyle=orthogonalEdgeStyle;rounded=0;orthogonalLoop=1;jettySize=auto;html=1;exitX=1;exitY=0.5;exitDx=0;exitDy=0;entryX=0;entryY=0.5;entryDx=0;entryDy=0;" edge="1" parent="1" source="qKuAGOzUROGgnCHo_64u-9" target="qKuAGOzUROGgnCHo_64u-66">
          <mxGeometry relative="1" as="geometry" />
        </mxCell>
        <mxCell id="qKuAGOzUROGgnCHo_64u-140" value="存储视力自测记录" style="edgeLabel;html=1;align=center;verticalAlign=middle;resizable=0;points=[];" vertex="1" connectable="0" parent="qKuAGOzUROGgnCHo_64u-139">
          <mxGeometry x="-0.0246" y="1" relative="1" as="geometry">
            <mxPoint x="-7" y="-9" as="offset" />
          </mxGeometry>
        </mxCell>
        <mxCell id="qKuAGOzUROGgnCHo_64u-9" value="视力自测模块" style="rounded=1;whiteSpace=wrap;html=1;" vertex="1" parent="1">
          <mxGeometry x="300" y="205" width="120" height="60" as="geometry" />
        </mxCell>
        <mxCell id="qKuAGOzUROGgnCHo_64u-20" value="Redis缓存" style="shape=partialRectangle;whiteSpace=wrap;html=1;left=0;right=0;fillColor=none;" vertex="1" parent="1">
          <mxGeometry x="760" y="720" width="120" height="60" as="geometry" />
        </mxCell>
        <mxCell id="qKuAGOzUROGgnCHo_64u-21" value="用户数据库" style="shape=partialRectangle;whiteSpace=wrap;html=1;left=0;right=0;fillColor=none;" vertex="1" parent="1">
          <mxGeometry x="240" y="720" width="240" height="60" as="geometry" />
        </mxCell>
        <mxCell id="qKuAGOzUROGgnCHo_64u-34" value="科普内容库" style="shape=partialRectangle;whiteSpace=wrap;html=1;left=0;right=0;fillColor=none;" vertex="1" parent="1">
          <mxGeometry x="40" y="205" width="120" height="60" as="geometry" />
        </mxCell>
        <mxCell id="qKuAGOzUROGgnCHo_64u-63" value="商品信息表" style="shape=partialRectangle;whiteSpace=wrap;html=1;left=0;right=0;fillColor=none;" vertex="1" parent="1">
          <mxGeometry x="950" y="205" width="120" height="60" as="geometry" />
        </mxCell>
        <mxCell id="qKuAGOzUROGgnCHo_64u-66" value="用户健康数据" style="shape=partialRectangle;whiteSpace=wrap;html=1;left=0;right=0;fillColor=none;" vertex="1" parent="1">
          <mxGeometry x="590" y="205" width="120" height="60" as="geometry" />
        </mxCell>
        <mxCell id="qKuAGOzUROGgnCHo_64u-103" style="edgeStyle=orthogonalEdgeStyle;rounded=0;orthogonalLoop=1;jettySize=auto;html=1;exitX=0.5;exitY=0;exitDx=0;exitDy=0;entryX=0;entryY=1;entryDx=0;entryDy=0;" edge="1" parent="1" source="qKuAGOzUROGgnCHo_64u-96" target="qKuAGOzUROGgnCHo_64u-4">
          <mxGeometry relative="1" as="geometry" />
        </mxCell>
        <mxCell id="qKuAGOzUROGgnCHo_64u-112" value="信息更新请求" style="edgeLabel;html=1;align=center;verticalAlign=middle;resizable=0;points=[];textDirection=vertical-rl;" vertex="1" connectable="0" parent="qKuAGOzUROGgnCHo_64u-103">
          <mxGeometry x="-0.5036" y="5" relative="1" as="geometry">
            <mxPoint x="-6" y="-24" as="offset" />
          </mxGeometry>
        </mxCell>
        <mxCell id="qKuAGOzUROGgnCHo_64u-122" style="edgeStyle=orthogonalEdgeStyle;rounded=0;orthogonalLoop=1;jettySize=auto;html=1;exitX=0.5;exitY=1;exitDx=0;exitDy=0;entryX=0.25;entryY=0;entryDx=0;entryDy=0;" edge="1" parent="1" source="qKuAGOzUROGgnCHo_64u-96" target="qKuAGOzUROGgnCHo_64u-21">
          <mxGeometry relative="1" as="geometry" />
        </mxCell>
        <mxCell id="qKuAGOzUROGgnCHo_64u-126" value="更新用户信息" style="edgeLabel;html=1;align=center;verticalAlign=middle;resizable=0;points=[];textShadow=1;textDirection=vertical-rl;" vertex="1" connectable="0" parent="qKuAGOzUROGgnCHo_64u-122">
          <mxGeometry x="-0.0398" relative="1" as="geometry">
            <mxPoint x="-11" y="-3" as="offset" />
          </mxGeometry>
        </mxCell>
        <mxCell id="qKuAGOzUROGgnCHo_64u-96" value="个人信息管理模块" style="rounded=1;whiteSpace=wrap;html=1;" vertex="1" parent="1">
          <mxGeometry x="240" y="550" width="120" height="60" as="geometry" />
        </mxCell>
        <mxCell id="qKuAGOzUROGgnCHo_64u-104" style="edgeStyle=orthogonalEdgeStyle;rounded=0;orthogonalLoop=1;jettySize=auto;html=1;exitX=0.25;exitY=0;exitDx=0;exitDy=0;entryX=0.75;entryY=1;entryDx=0;entryDy=0;" edge="1" parent="1" source="qKuAGOzUROGgnCHo_64u-98" target="qKuAGOzUROGgnCHo_64u-4">
          <mxGeometry relative="1" as="geometry" />
        </mxCell>
        <mxCell id="qKuAGOzUROGgnCHo_64u-114" value="登录请求" style="edgeLabel;html=1;align=center;verticalAlign=middle;resizable=0;points=[];textDirection=vertical-rl;" vertex="1" connectable="0" parent="qKuAGOzUROGgnCHo_64u-104">
          <mxGeometry x="-0.4588" y="-1" relative="1" as="geometry">
            <mxPoint x="-12" y="-22" as="offset" />
          </mxGeometry>
        </mxCell>
        <mxCell id="qKuAGOzUROGgnCHo_64u-124" style="edgeStyle=orthogonalEdgeStyle;rounded=0;orthogonalLoop=1;jettySize=auto;html=1;exitX=0.5;exitY=1;exitDx=0;exitDy=0;entryX=0.75;entryY=0;entryDx=0;entryDy=0;" edge="1" parent="1" source="qKuAGOzUROGgnCHo_64u-98" target="qKuAGOzUROGgnCHo_64u-21">
          <mxGeometry relative="1" as="geometry" />
        </mxCell>
        <mxCell id="qKuAGOzUROGgnCHo_64u-127" value="查询用户信息" style="edgeLabel;html=1;align=center;verticalAlign=middle;resizable=0;points=[];textDirection=vertical-rl;" vertex="1" connectable="0" parent="qKuAGOzUROGgnCHo_64u-124">
          <mxGeometry x="-0.0622" y="1" relative="1" as="geometry">
            <mxPoint x="7" as="offset" />
          </mxGeometry>
        </mxCell>
        <mxCell id="qKuAGOzUROGgnCHo_64u-142" style="edgeStyle=orthogonalEdgeStyle;rounded=0;orthogonalLoop=1;jettySize=auto;html=1;exitX=1;exitY=0.5;exitDx=0;exitDy=0;entryX=0;entryY=1;entryDx=0;entryDy=0;" edge="1" parent="1" source="qKuAGOzUROGgnCHo_64u-98" target="qKuAGOzUROGgnCHo_64u-5">
          <mxGeometry relative="1" as="geometry">
            <Array as="points">
              <mxPoint x="660" y="580" />
              <mxPoint x="660" y="445" />
            </Array>
          </mxGeometry>
        </mxCell>
        <mxCell id="qKuAGOzUROGgnCHo_64u-143" value="用户身份Token" style="edgeLabel;html=1;align=center;verticalAlign=middle;resizable=0;points=[];" vertex="1" connectable="0" parent="qKuAGOzUROGgnCHo_64u-142">
          <mxGeometry x="-0.5204" y="-4" relative="1" as="geometry">
            <mxPoint y="-14" as="offset" />
          </mxGeometry>
        </mxCell>
        <mxCell id="qKuAGOzUROGgnCHo_64u-98" value="登录验证模块" style="rounded=1;whiteSpace=wrap;html=1;" vertex="1" parent="1">
          <mxGeometry x="360" y="550" width="120" height="60" as="geometry" />
        </mxCell>
      </root>
    </mxGraphModel>
  </diagram>
</mxfile>
